# xmcd
#
# Track frame offsets: 
#        150
#        14902
#        27900
#        47820
#        62117
#        75697
#        89860
#
# Disc length: 1397 seconds
#
# Revision: 0
# Processed by: cddbd v1.5.2PL0 Copyright (c) Steve Scherf et al.
# Submitted via: ExactAudioCopyFreeDBPlugin 1.0
#
DISCID=5f057307
DTITLE=Various Artist - Absolute Country 2 Sample
DYEAR=1995
DGENRE=Country
TTITLE0=Carlene Carter - He Will Be Mine
TTITLE1=Stacy Dean Campbell - Why You Been Gone So Long
TTITLE2=Jean Michael Montgomery - I Swear
TTITLE3=Faith Hill - Let's Go To Vegas
TTITLE4=David Ball - Thinkin' Problem
TTITLE5=Emmylou Harris - You Don't Know Me
TTITLE6=Lee Roy Parnell - We All Get Lucky Sometimes
EXTD=
EXTT0=
EXTT1=
EXTT2=
EXTT3=
EXTT4=
EXTT5=
EXTT6=
PLAYORDER=
